<svg width="55" height="55" viewBox="0 0 55 55" fill="none" xmlns="http://www.w3.org/2000/svg">
<path d="M13.75 27.5C13.7489 26.898 13.867 26.3017 14.0975 25.7455C14.328 25.1893 14.6663 24.6843 15.093 24.2596L33.4263 5.92624C34.2907 5.09135 35.4485 4.62938 36.6502 4.63982C37.852 4.65026 39.0015 5.13229 39.8513 5.98208C40.7011 6.83186 41.1831 7.98142 41.1936 9.18316C41.204 10.3849 40.742 11.5427 39.9071 12.4071L24.8165 27.5L39.9071 42.5929C40.742 43.4573 41.204 44.6151 41.1936 45.8168C41.1831 47.0186 40.7011 48.1681 39.8513 49.0179C39.0015 49.8677 37.852 50.3497 36.6502 50.3602C35.4485 50.3706 34.2907 49.9086 33.4263 49.0737L15.093 30.7404C14.6663 30.3157 14.328 29.8106 14.0975 29.2545C13.867 28.6983 13.7489 28.102 13.75 27.5Z" fill="#212633"/>
</svg>
