<svg xmlns="http://www.w3.org/2000/svg" version="1.1" xmlns:xlink="http://www.w3.org/1999/xlink"
    width="512" height="512" x="0" y="0" viewBox="0 0 394.667 394.667"
    style="enable-background:new 0 0 512 512" xml:space="preserve" class=""><g><path d="M61.25 370h247.5c33.813-.04 61.21-27.438 61.25-61.25V61.25C369.96 27.437 342.562.04 308.75 0H61.25C27.437.04.04 27.438 0 61.25v247.5c.04 33.813 27.438 61.21 61.25 61.25zM22.5 61.25c.023-21.39 17.36-38.727 38.75-38.75h247.5c21.39.023 38.727 17.36 38.75 38.75v247.5c-.023 21.39-17.36 38.727-38.75 38.75H61.25c-21.39-.023-38.727-17.36-38.75-38.75zm0 0" fill="#000000" opacity="1" data-original="#000000" class=""></path><path d="M185 223.398c21.207 0 38.398-17.191 38.398-38.398S206.207 146.602 185 146.602 146.602 163.793 146.602 185c.023 21.195 17.203 38.375 38.398 38.398zm0-54.296c8.781 0 15.898 7.117 15.898 15.898s-7.117 15.898-15.898 15.898-15.898-7.117-15.898-15.898c.007-8.773 7.125-15.89 15.898-15.898zM103.555 141.953c21.207 0 38.398-17.191 38.398-38.398 0-21.211-17.191-38.399-38.398-38.399-21.207 0-38.399 17.192-38.399 38.399.024 21.195 17.203 38.375 38.399 38.398zm0-54.297c8.78 0 15.898 7.117 15.898 15.899s-7.117 15.898-15.898 15.898-15.899-7.117-15.899-15.898c.008-8.774 7.125-15.89 15.899-15.899zM266.445 141.953c21.207 0 38.399-17.191 38.399-38.398 0-21.207-17.192-38.399-38.399-38.399s-38.398 17.192-38.398 38.399c.023 21.195 17.203 38.375 38.398 38.398zm0-54.297c8.782 0 15.899 7.117 15.899 15.899s-7.114 15.898-15.899 15.898c-8.78 0-15.898-7.117-15.898-15.898.008-8.774 7.125-15.89 15.898-15.899zM103.555 304.844c21.207 0 38.398-17.192 38.398-38.399s-17.191-38.398-38.398-38.398c-21.207 0-38.399 17.191-38.399 38.398.024 21.196 17.203 38.375 38.399 38.399zm0-54.297c8.78 0 15.898 7.117 15.898 15.898 0 8.785-7.117 15.899-15.898 15.899s-15.899-7.117-15.899-15.899c.008-8.773 7.125-15.89 15.899-15.898zM266.445 304.844c21.207 0 38.399-17.192 38.399-38.399s-17.188-38.398-38.399-38.398c-21.207 0-38.398 17.191-38.398 38.398.023 21.196 17.203 38.375 38.398 38.399zm0-54.297c8.782 0 15.899 7.117 15.899 15.898s-7.117 15.899-15.899 15.899-15.898-7.117-15.898-15.899c.008-8.773 7.125-15.89 15.898-15.898zm0 0" fill="#000000" opacity="1" data-original="#000000" class=""></path></g></svg>