<svg xmlns="http://www.w3.org/2000/svg" version="1.1" xmlns:xlink="http://www.w3.org/1999/xlink"
    width="512" height="512" x="0" y="0" viewBox="0 0 211.627 211.627"
    style="enable-background:new 0 0 512 512" xml:space="preserve" class=""><g><path d="M153.6 59.733c0-26.392-21.395-47.787-47.787-47.787S58.027 33.341 58.027 59.733H153.6z" style="" fill="#ee5281" data-original="#ee5281"></path><path d="M157.013 63.147h-102.4v-3.413c0-28.232 22.968-51.2 51.2-51.2s51.2 22.968 51.2 51.2v3.413zM61.57 56.32h88.487c-1.748-22.88-20.924-40.96-44.244-40.96S63.319 33.44 61.57 56.32z" fill="#000000" opacity="1" data-original="#000000"></path><path d="M153.6 59.733c0 26.392-21.395 47.787-47.787 47.787S58.027 86.125 58.027 59.733H153.6z" style="" fill="#ffffff" data-original="#ffffff"></path><path d="M105.813 110.933c-28.232 0-51.2-22.968-51.2-51.2a3.414 3.414 0 0 1 3.413-3.413H153.6a3.414 3.414 0 0 1 3.413 3.413c0 28.232-22.968 51.2-51.2 51.2zM61.57 63.147c1.748 22.88 20.924 40.96 44.244 40.96s42.494-18.08 44.244-40.96H61.57z" fill="#000000" opacity="1" data-original="#000000"></path><circle cx="105.813" cy="59.733" r="14.336" style="" fill="#ffffff" data-original="#ffffff"></circle><path d="M105.813 77.483c-9.786 0-17.749-7.963-17.749-17.749s7.963-17.749 17.749-17.749 17.749 7.963 17.749 17.749-7.963 17.749-17.749 17.749zm0-28.672c-6.023 0-10.923 4.9-10.923 10.923s4.9 10.923 10.923 10.923 10.923-4.9 10.923-10.923-4.9-10.923-10.923-10.923z" fill="#000000" opacity="1" data-original="#000000"></path><path d="M98.987 151.893c0-26.392-21.395-47.787-47.787-47.787S3.413 125.501 3.413 151.893h95.574z" style="" fill="#ee5281" data-original="#ee5281"></path><path d="M102.4 155.307H0v-3.413c0-28.232 22.968-51.2 51.2-51.2s51.2 22.968 51.2 51.2v3.413zM6.956 148.48h88.487C93.696 125.6 74.52 107.52 51.2 107.52S8.706 125.6 6.956 148.48z" fill="#000000" opacity="1" data-original="#000000"></path><path d="M98.987 151.893c0 26.392-21.395 47.787-47.787 47.787S3.413 178.285 3.413 151.893h95.574z" style="" fill="#ffffff" data-original="#ffffff"></path><path d="M51.2 203.093c-28.232 0-51.2-22.968-51.2-51.2a3.414 3.414 0 0 1 3.413-3.413h95.573a3.414 3.414 0 0 1 3.413 3.413c.001 28.232-22.967 51.2-51.199 51.2zM6.956 155.307c1.748 22.88 20.924 40.96 44.244 40.96s42.494-18.08 44.244-40.96H6.956z" fill="#000000" opacity="1" data-original="#000000"></path><circle cx="51.2" cy="151.893" r="14.336" style="" fill="#ffffff" data-original="#ffffff"></circle><path d="M51.2 169.643c-9.786 0-17.749-7.963-17.749-17.749 0-9.786 7.963-17.749 17.749-17.749s17.749 7.963 17.749 17.749c0 9.785-7.963 17.749-17.749 17.749zm0-28.672c-6.023 0-10.923 4.9-10.923 10.923s4.9 10.923 10.923 10.923 10.923-4.9 10.923-10.923-4.9-10.923-10.923-10.923z" fill="#000000" opacity="1" data-original="#000000"></path><path d="M208.213 151.893c0-26.392-21.395-47.787-47.787-47.787s-47.787 21.395-47.787 47.787h95.574z" style="" fill="#ee5281" data-original="#ee5281"></path><path d="M211.627 155.307h-102.4v-3.413c0-28.232 22.968-51.2 51.2-51.2s51.2 22.968 51.2 51.2v3.413zm-95.444-6.827h88.487c-1.748-22.88-20.924-40.96-44.244-40.96s-42.494 18.08-44.243 40.96z" fill="#000000" opacity="1" data-original="#000000"></path><path d="M208.213 151.893c0 26.392-21.395 47.787-47.787 47.787s-47.787-21.395-47.787-47.787h95.574z" style="" fill="#ffffff" data-original="#ffffff"></path><path d="M160.427 203.093c-28.232 0-51.2-22.968-51.2-51.2a3.414 3.414 0 0 1 3.413-3.413h95.573a3.414 3.414 0 0 1 3.413 3.413c.001 28.232-22.968 51.2-51.199 51.2zm-44.244-47.786c1.748 22.88 20.924 40.96 44.244 40.96s42.494-18.08 44.244-40.96h-88.488z" fill="#000000" opacity="1" data-original="#000000"></path><circle cx="160.427" cy="151.893" r="14.336" style="" fill="#ffffff" data-original="#ffffff"></circle><path d="M160.427 169.643c-9.786 0-17.749-7.963-17.749-17.749 0-9.786 7.963-17.749 17.749-17.749 9.786 0 17.749 7.963 17.749 17.749 0 9.785-7.963 17.749-17.749 17.749zm0-28.672c-6.023 0-10.923 4.9-10.923 10.923s4.9 10.923 10.923 10.923 10.923-4.9 10.923-10.923-4.9-10.923-10.923-10.923z" fill="#000000" opacity="1" data-original="#000000"></path></g></svg>