<svg width="55" height="55" viewBox="0 0 55 55" fill="none" xmlns="http://www.w3.org/2000/svg">
<g clip-path="url(#clip0_407_8)">
<path d="M52.989 12.9422C52.5553 12.7174 52.0814 12.5803 51.5946 12.539C51.1078 12.4977 50.6176 12.5529 50.1521 12.7013C49.6867 12.8498 49.2551 13.0888 48.8822 13.4044C48.5092 13.72 48.2023 14.1061 47.9789 14.5406L46.6984 17.0242C42.9515 9.85704 35.4578 4.95001 26.8296 4.95001C18.6914 4.95001 11.1804 9.37579 7.22731 16.4914C6.23043 18.2875 6.87496 20.5477 8.67106 21.5445C10.4672 22.5414 12.7273 21.8969 13.7242 20.1008C16.3711 15.3399 21.3898 12.3836 26.8296 12.3836C32.2179 12.3836 36.9359 15.2539 39.5742 19.5336L36.6351 17.8063C34.8648 16.7664 32.5875 17.3508 31.5476 19.1211C30.5078 20.8914 31.0922 23.1688 32.8625 24.2086L43.4414 30.4391L43.6476 30.5594C43.725 30.6024 43.8023 30.6367 43.8797 30.6711C43.9914 30.7313 44.1031 30.7828 44.2234 30.8258C44.3695 30.8774 44.5156 30.9289 44.6617 30.9633C44.739 30.9805 44.8078 30.9977 44.8851 31.0063C45.0828 31.0406 45.289 31.0664 45.4953 31.0664H45.5382C45.7617 31.0664 45.9851 31.0406 46.2086 30.9977C46.2555 30.9913 46.3016 30.9798 46.3461 30.9633C46.4148 30.9461 46.4922 30.9375 46.5609 30.9203C46.6382 30.8945 46.7156 30.8602 46.7929 30.8258C46.8961 30.7914 46.9906 30.7484 47.0851 30.7055C47.2226 30.6453 47.3515 30.568 47.4804 30.4906C47.5492 30.4477 47.6265 30.3961 47.6953 30.3531C47.8328 30.2586 47.9531 30.1555 48.082 30.0352C48.1336 29.9922 48.1765 29.9406 48.2281 29.8891C48.3484 29.7602 48.4601 29.6227 48.5632 29.4766C48.5976 29.425 48.632 29.382 48.6578 29.3305C48.7179 29.236 48.7867 29.15 48.8382 29.0469L54.5875 17.9266C55.5242 16.1219 54.8109 13.8875 52.989 12.9422ZM46.3289 33.4555C45.9024 33.2181 45.4333 33.0672 44.9484 33.0113C44.4635 32.9554 43.9723 32.9956 43.503 33.1297C43.0337 33.2638 42.5954 33.4891 42.2132 33.7928C41.831 34.0964 41.5125 34.4724 41.2757 34.8992C39.9771 37.2367 38.0774 39.1846 35.7733 40.5414C33.4691 41.8982 30.8442 42.6146 28.1703 42.6164C22.782 42.6164 18.064 39.7461 15.4172 35.4578L18.3562 37.1852C20.1265 38.225 22.4039 37.6406 23.4437 35.8703C24.4836 34.1 23.8992 31.8227 22.1289 30.7828L11.55 24.5524C11.55 24.5524 11.5414 24.5524 11.5414 24.5438L11.3437 24.432C11.3093 24.4149 11.2664 24.3977 11.232 24.3805C11.0687 24.2945 10.9054 24.2172 10.7336 24.1484C10.6562 24.1227 10.5789 24.0969 10.4929 24.0711C10.3468 24.0281 10.1922 23.9938 10.0375 23.968C9.92575 23.9508 9.81403 23.9422 9.70231 23.9336C9.62496 23.925 9.54762 23.9078 9.46168 23.9078C9.41012 23.9078 9.36715 23.9164 9.31559 23.925C9.18668 23.9336 9.05778 23.9422 8.92887 23.968C8.80856 23.9852 8.69684 24.0024 8.58512 24.0281C8.53356 24.0453 8.4734 24.0453 8.42184 24.0539C8.3445 24.0797 8.27574 24.1141 8.1984 24.1484C8.09528 24.1828 8.00074 24.2258 7.90621 24.2688C7.76871 24.3289 7.63981 24.4063 7.5109 24.4836C7.44215 24.5266 7.36481 24.5781 7.29606 24.6211C7.15856 24.7156 7.03825 24.8188 6.91793 24.9391C6.87496 24.9906 6.83199 25.0422 6.78043 25.0938C6.66012 25.2227 6.5484 25.3602 6.44528 25.5063C6.4109 25.5578 6.37653 25.6008 6.35074 25.6524C6.29059 25.7469 6.22184 25.8328 6.16168 25.9359L0.412464 37.0477C0.187623 37.4814 0.0506101 37.9553 0.00927969 38.4421C-0.0320507 38.9289 0.0231145 39.4191 0.171612 39.8846C0.32011 40.35 0.559021 40.7816 0.874645 41.1545C1.19027 41.5275 1.5764 41.8344 2.0109 42.0578C2.88754 42.5086 3.90716 42.5935 4.84629 42.2939C5.78542 41.9943 6.56747 41.3346 7.02106 40.4594L8.30153 37.9758C12.0484 45.143 19.5422 50.0414 28.1703 50.0414C36.3086 50.0414 43.8195 45.6156 47.7726 38.5C48.7695 36.7125 48.125 34.4524 46.3289 33.4555Z" fill="white"/>
</g>
<defs>
<clipPath id="clip0_407_8">
<rect width="55" height="55" fill="white"/>
</clipPath>
</defs>
</svg>
